<svg width="109" height="107" viewBox="0 0 109 107" fill="none" xmlns="http://www.w3.org/2000/svg">
<path d="M42.3271 92.0124C43.3209 92.3369 44.0974 92.8428 44.6569 93.5304C45.2028 94.2248 45.4825 95.0286 45.4957 95.9418L44.0484 96.2435C44.0671 94.8246 43.3312 93.8718 41.8406 93.3852C41.1207 93.1502 40.5196 93.1167 40.0374 93.2846C39.545 93.4493 39.2153 93.7849 39.0483 94.2914C38.8845 94.7877 38.9519 95.2305 39.2503 95.6197C39.5183 95.9652 40.0736 96.4438 40.9164 97.0556L41.8252 97.7226C42.0182 97.8866 42.2688 98.1143 42.5771 98.4056C42.8718 98.7038 43.0702 98.9706 43.1723 99.2059C43.4581 99.8378 43.4857 100.503 43.2552 101.202C42.9478 102.134 42.3827 102.758 41.56 103.072C40.7306 103.408 39.8495 103.423 38.9166 103.118C38.0851 102.847 37.4236 102.401 36.9319 101.78C36.4402 101.16 36.1558 100.439 36.0787 99.6167L37.4906 99.3202C37.586 100.563 38.2117 101.373 39.3677 101.751C39.9457 101.939 40.4589 101.95 40.9073 101.782C41.3558 101.614 41.6602 101.287 41.8206 100.801C41.9743 100.335 41.9239 99.926 41.6695 99.5737C41.4083 99.2079 40.9138 98.7659 40.1862 98.2478L39.6277 97.8467C39.3264 97.6025 39.1622 97.4703 39.1351 97.4503C38.8507 97.2228 38.551 96.9398 38.2358 96.6013C38.0121 96.3599 37.8152 96.0376 37.645 95.6342C37.4071 95.1638 37.405 94.574 37.6389 93.8649C37.9463 92.933 38.5316 92.2993 39.3947 91.964C40.2647 91.6421 41.2422 91.6582 42.3271 92.0124Z" fill="white"/>
<path d="M28.1604 84.0366C29.4574 85.1459 30.1573 86.4813 30.26 88.0428C30.3697 89.5963 29.8875 90.9945 28.8136 92.2374C27.7396 93.4803 26.4224 94.1645 24.8622 94.2898C23.295 94.4232 21.8628 93.9353 20.5658 92.826C19.7957 92.1674 19.2427 91.3717 18.9069 90.4389C18.5711 89.5061 18.4927 88.5689 18.6719 87.6274L20.1485 87.9007C19.9872 88.5768 20.0312 89.26 20.2805 89.9504C20.5147 90.6419 20.9236 91.2373 21.5073 91.7364C22.4963 92.5822 23.5708 92.9538 24.7308 92.8511C25.8839 92.7566 26.8719 92.2331 27.6949 91.2807C28.5108 90.3364 28.8792 89.29 28.8001 88.1417C28.728 86.9852 28.1974 85.9841 27.2085 85.1383C26.6248 84.6392 25.9753 84.3223 25.2599 84.1877C24.5294 84.0542 23.8438 84.1135 23.2031 84.3656L22.6994 82.9663C23.6 82.6418 24.5425 82.5707 25.5269 82.7529C26.4962 82.9362 27.3741 83.3642 28.1604 84.0366Z" fill="white"/>
<path d="M16.6173 68.1837L17.3634 69.6531L14.6693 73.8184L15.8646 76.1723L19.6959 74.2468L20.3696 75.5736L10.3623 80.6029L8.334 76.6083C7.89937 75.7524 7.8325 74.8668 8.13339 73.9515C8.42476 73.0411 8.99932 72.3703 9.85709 71.9392C10.5052 71.6135 11.1951 71.5115 11.9268 71.6332C12.6729 71.7597 13.3005 72.065 13.8096 72.5493L16.6173 68.1837ZM9.57777 75.9833L10.9324 78.6511L14.6637 76.7759L13.3091 74.1081C13.0579 73.6135 12.6644 73.286 12.1283 73.1257C11.5875 72.9558 11.055 73.0025 10.5308 73.266C10.0066 73.5294 9.65751 73.9257 9.48356 74.4548C9.29524 74.9792 9.32664 75.4887 9.57777 75.9833Z" fill="white"/>
<path d="M9.1625 62.8399C7.5443 62.9407 6.14113 62.467 4.95297 61.4188C3.75416 60.3713 3.10386 59.0384 3.00205 57.4203C2.90025 55.8022 3.37843 54.3991 4.43659 53.211C5.48343 52.013 6.81595 51.3636 8.43415 51.2628C10.0417 51.1627 11.4452 51.6417 12.6447 52.6999C13.8435 53.7474 14.4938 55.0802 14.5956 56.6984C14.6974 58.3165 14.2192 59.7196 13.1611 60.9077C12.0923 62.0964 10.7594 62.7405 9.1625 62.8399ZM8.52758 52.7479C7.29264 52.8248 6.28609 53.3042 5.50794 54.1863C4.7178 55.0477 4.36158 56.0959 4.43927 57.3308C4.51629 58.555 5.00144 59.5562 5.89472 60.3341C6.78733 61.1015 7.84578 61.447 9.07008 61.3708C10.2837 61.2952 11.2906 60.8211 12.0907 59.9483C12.8689 59.0663 13.2194 58.0131 13.1424 56.7889C13.0647 55.554 12.5852 54.5578 11.7039 53.8005C10.8 53.0232 9.74123 52.6723 8.52758 52.7479Z" fill="white"/>
<path d="M5.27691 39.3226L14.5821 42.3717L16.1008 37.7846L17.4388 38.223L15.4524 44.2228L4.80923 40.7352L5.27691 39.3226Z" fill="white"/>
<path d="M12.4349 24.6684L20.3181 30.4769L23.2035 26.601L24.337 27.4362L20.563 32.5057L11.5463 25.862L12.4349 24.6684Z" fill="white"/>
<path d="M31.5441 8.1076L39.051 5.11866L39.5764 6.42492L36.4994 7.65009L40.1539 16.7346L38.7864 17.2791L35.1318 8.19461L32.0696 9.41386L31.5441 8.1076Z" fill="white"/>
<path d="M49.2478 8.40679C49.2678 6.78558 49.8447 5.42186 50.9785 4.31563C52.1123 3.19873 53.4899 2.65018 55.1111 2.66999C56.7323 2.6898 58.0959 3.27183 59.2018 4.4161C60.3186 5.54983 60.867 6.9273 60.847 8.54851C60.8271 10.159 60.2449 11.5227 59.1003 12.6395C57.9665 13.7564 56.5889 14.3049 54.9677 14.2851C53.3465 14.2653 51.9829 13.6833 50.8769 12.539C49.7711 11.3841 49.2281 10.0067 49.2478 8.40679ZM59.3591 8.53033C59.3743 7.29309 58.9712 6.25342 58.1495 5.41132C57.3493 4.55881 56.3306 4.125 55.0933 4.10988C53.8667 4.0949 52.8323 4.50362 51.9899 5.33606C51.1583 6.16863 50.7349 7.1982 50.7197 8.42477C50.7047 9.64068 51.1026 10.6803 51.9133 11.5436C52.735 12.3857 53.7591 12.8142 54.9857 12.8292C56.2229 12.8443 57.252 12.4409 58.0729 11.6188C58.9153 10.7757 59.3441 9.74623 59.3591 8.53033Z" fill="white"/>
<path d="M79.6437 16.5736L77.5547 19.4463L81.7751 22.484L80.947 23.6228L75.5189 19.7158L82.106 10.6577L87.4692 14.5179L86.6411 15.6566L82.4856 12.6657L80.4624 15.4478L84.2933 18.2051L83.4746 19.3309L79.6437 16.5736Z" fill="white"/>
<path d="M93.2464 29.1309L90.4391 35.315L89.4945 33.9065L91.641 29.1787L86.4289 29.3352L85.4932 27.9399L92.2974 27.7445L94.9406 21.9189L95.8763 23.3142L93.8939 27.6834L98.7102 27.5399L99.6459 28.9352L93.2464 29.1309Z" fill="white"/>
<path d="M104.044 39.215L104.935 43.1801C105.16 44.1792 105.01 45.0922 104.485 45.9192C103.96 46.7462 103.203 47.2697 102.214 47.4897C101.225 47.7097 100.316 47.5567 99.487 47.0308C98.6582 46.5049 98.1315 45.7423 97.907 44.7433L97.3422 42.2299L93.4376 43.0984L93.1114 41.6466L104.044 39.215ZM98.701 41.9277L99.2658 44.441C99.4038 45.0551 99.7191 45.5095 100.212 45.8042C100.727 46.1047 101.287 46.1878 101.891 46.0535C102.516 45.9146 102.987 45.6022 103.304 45.1164C103.621 44.6306 103.712 44.0859 103.576 43.4823L103.012 40.969L98.701 41.9277Z" fill="white"/>
<path d="M105.888 59.1351L96.1701 57.931L95.5698 62.7256L94.1725 62.5524L94.9576 56.2814L106.073 57.6586L105.888 59.1351Z" fill="white"/>
<path d="M97.6536 71.0209C99.0746 71.8017 100.004 72.9514 100.442 74.4699C100.889 75.9936 100.719 77.4643 99.9325 78.8818C99.1456 80.2993 97.9848 81.2255 96.4503 81.6602C94.9199 82.1094 93.4442 81.9437 92.0233 81.1629C90.6117 80.3873 89.6848 79.2329 89.2426 77.6999C88.7953 76.1762 88.9651 74.7056 89.7521 73.288C90.539 71.8705 91.6998 70.9444 93.2343 70.5096C94.7782 70.08 96.2513 70.2504 97.6536 71.0209ZM92.7455 79.8619C93.8299 80.4578 94.9386 80.5923 96.0716 80.2655C97.2036 79.9626 98.0699 79.2702 98.6705 78.1884C99.2659 77.1159 99.3962 76.013 99.0615 74.8798C98.7217 73.7559 98.0142 72.8986 96.9391 72.3079C95.8734 71.7223 94.7673 71.5831 93.6208 71.8903C92.4877 72.2171 91.6235 72.9167 91.0282 73.9892C90.4276 75.071 90.2952 76.1666 90.6309 77.276C90.9749 78.4144 91.6798 79.2764 92.7455 79.8619Z" fill="white"/>
<path d="M75.791 88.4617L77.0944 87.4533L81.722 89.2947L83.8101 87.6793L81.1694 84.3009L82.3463 83.3904L89.2436 92.2147L85.7001 94.9559C84.9408 95.5434 84.081 95.777 83.1206 95.6568C82.1668 95.5451 81.3943 95.111 80.8031 94.3547C80.3565 93.7832 80.1222 93.1283 80.1002 92.3901C80.0801 91.637 80.2594 90.9656 80.638 90.3761L75.791 88.4617ZM84.8429 93.8592L87.2094 92.0285L84.6377 88.7383L82.2712 90.569C81.8325 90.9084 81.5861 91.3553 81.532 91.9096C81.4694 92.4704 81.6188 92.982 81.9801 93.4442C82.3414 93.9064 82.7996 94.1723 83.3548 94.2417C83.9082 94.3261 84.4042 94.1986 84.8429 93.8592Z" fill="white"/>
<path d="M69.9344 96.4763L68.8634 93.0896L63.9008 94.6429L63.4763 93.3004L69.859 91.3027L73.2359 101.981L66.9296 103.955L66.505 102.613L71.3913 101.083L70.3541 97.8035L65.8496 99.2134L65.4299 97.8862L69.9344 96.4763Z" fill="white"/>
</svg>
